<mxfile host="app.diagrams.net" modified="2023-09-08T10:26:33.082Z" agent="Mozilla/5.0 (Macintosh; Intel Mac OS X 10_15_7) AppleWebKit/605.1.15 (KHTML, like Gecko) Version/16.6 Safari/605.1.15" version="21.7.2" etag="kEchTC4HU5aizznVWQEo" type="github">
  <diagram name="第 1 页" id="vNLR2h-MChZhfmQoO51h">
    <mxGraphModel>
      <root>
        <mxCell id="0" />
        <mxCell id="1" parent="0" />
      </root>
    </mxGraphModel>
  </diagram>
</mxfile>
